<?xml version="1.0" encoding="UTF-8" standalone="no"?>
<!-- Created with Inkscape (http://www.inkscape.org/) -->

<svg
   width="28.598484mm"
   height="36.385036mm"
   viewBox="0 0 28.598484 36.385036"
   version="1.1"
   id="svg364"
   xml:space="preserve"
   inkscape:version="1.2.2 (732a01da63, 2022-12-09, custom)"
   sodipodi:docname="LLaMA.CPP.svg"
   xmlns:inkscape="http://www.inkscape.org/namespaces/inkscape"
   xmlns:sodipodi="http://sodipodi.sourceforge.net/DTD/sodipodi-0.dtd"
   xmlns="http://www.w3.org/2000/svg"
   xmlns:svg="http://www.w3.org/2000/svg"><sodipodi:namedview
     id="namedview366"
     pagecolor="#ffffff"
     bordercolor="#999999"
     borderopacity="1"
     inkscape:showpageshadow="0"
     inkscape:pageopacity="0"
     inkscape:pagecheckerboard="0"
     inkscape:deskcolor="#d1d1d1"
     inkscape:document-units="mm"
     showgrid="false"
     inkscape:zoom="2.7212897"
     inkscape:cx="43.361792"
     inkscape:cy="72.759618"
     inkscape:window-width="1368"
     inkscape:window-height="716"
     inkscape:window-x="0"
     inkscape:window-y="26"
     inkscape:window-maximized="1"
     inkscape:current-layer="layer1" /><defs
     id="defs361" /><g
     inkscape:label="Layer 1"
     inkscape:groupmode="layer"
     id="layer1"
     transform="translate(-130.23813,-133.76034)"><path
       style="fill:#ffff00;stroke:none;stroke-width:0.173634"
       d="m 132.54556,147.92014 c 1.64386,-0.84825 2.99597,-2.16208 4.68813,-2.99412 0.4946,-0.24321 1.58572,-0.49157 1.78699,-1.06781 0.19335,-0.55333 -0.34228,-1.32714 -0.50911,-1.84164 -0.30815,-0.95024 -0.33813,-2.01008 0.0197,-2.95179 0.47583,-1.25553 1.26588,-2.37498 1.70728,-3.64632 0.15279,-0.44002 0.41677,-1.17694 -0.12818,-1.45793 -1.52362,-0.78575 -3.83866,0.92352 -4.72924,1.97951 -2.20788,2.61793 -3.82774,8.62052 -2.83469,11.9801 m 8.1608,-4.51449 h 5.38266 c -0.18429,-1.2521 -0.78514,-2.38902 -0.25535,-3.64632 0.34671,-0.82283 2.28809,-2.67597 1.79498,-3.57104 -0.55424,-1.00606 -2.62332,-0.13645 -3.27597,0.29087 -2.35226,1.54056 -2.93879,4.41469 -3.64632,6.92649 m 1.73635,2.50522 c -2.50166,0.35825 -4.73232,1.22609 -6.77175,2.73087 -5.5299,4.08026 -7.76601,13.61624 -2.2504,18.69348 2.33302,2.1475 5.26065,2.82469 8.32762,2.80992 1.78279,-0.008 3.58595,-0.47072 5.20902,-1.1913 1.68251,-0.74696 1.5233,-1.53996 1.10606,-3.14937 -0.12089,-0.46639 -0.23962,-1.27553 -0.79786,-1.42104 -0.57206,-0.14905 -1.34919,0.41569 -1.87091,0.60581 -1.18661,0.43219 -2.54387,0.82478 -3.81996,0.79282 -5.50115,-0.13782 -7.52256,-5.62921 -5.65115,-10.22203 1.50325,-3.6892 5.24315,-5.69399 9.12385,-5.15676 1.04624,0.14492 3.64614,1.78463 4.45737,1.22448 0.4174,-0.28842 0.67317,-0.85168 0.92338,-1.27674 0.30352,-0.51519 1.02965,-1.41524 0.80617,-2.05159 -0.27034,-0.76989 -1.50923,-1.17149 -2.19334,-1.42966 -2.07788,-0.78418 -4.37111,-1.27778 -6.5981,-0.95889 m 3.81996,10.86462 c 0,-0.74889 0.21603,-1.91259 -0.17839,-2.57882 -0.39696,-0.67041 -1.96258,-0.83153 -2.42123,-0.14413 -0.46946,0.70355 0.17268,1.81499 -0.45686,2.44458 -0.80402,0.80393 -3.30761,-0.29221 -2.79102,1.83775 0.36438,1.5023 2.20295,0.29432 2.89097,1.2941 0.70358,1.02218 -0.0158,3.543 2.40998,2.38017 1.0212,-0.48964 0.1396,-1.83894 0.82504,-2.52446 0.54739,-0.54729 1.50028,-0.01 2.04775,-0.55668 1.73704,-1.73719 -1.34635,-2.15253 -2.32616,-2.15253 m 6.5981,0 c -0.97982,0 -4.06323,0.41534 -2.32619,2.15253 0.54747,0.54731 1.50039,0.01 2.04785,0.55668 0.6855,0.68552 -0.1961,2.03482 0.82494,2.52446 2.57794,1.23594 1.61185,-1.62122 2.50987,-2.50032 0.75931,-0.74316 2.25812,0.20871 2.74221,-1.00726 0.90881,-2.28277 -1.95476,-1.21717 -2.74221,-2.00444 -0.62942,-0.62959 0.0118,-1.74103 -0.45682,-2.44458 -0.45857,-0.68742 -2.02422,-0.5263 -2.42117,0.14413 -0.39448,0.66623 -0.17858,1.82993 -0.17858,2.57882 z"
       id="path320" /><path
       style="fill:#ff8942;stroke:none;stroke-width:0.166705"
       d="m 133.02408,148.08106 c 1.57825,-0.81438 2.87641,-2.0758 4.50104,-2.87462 0.47487,-0.23352 1.52244,-0.47196 1.71567,-1.0252 0.18548,-0.53124 -0.32862,-1.27419 -0.48879,-1.76815 -0.29586,-0.91233 -0.32465,-1.92987 0.0177,-2.834 0.45683,-1.20541 1.21536,-2.28021 1.63915,-3.50081 0.14669,-0.42246 0.40014,-1.12998 -0.12306,-1.39975 -1.46281,-0.75441 -3.68549,0.88668 -4.54053,1.90052 -2.11977,2.51345 -3.67499,8.2765 -2.72156,11.50201 m 7.83514,-4.33433 h 5.16787 c -0.17681,-1.20213 -0.75382,-2.29368 -0.24517,-3.50081 0.33287,-0.78999 2.19678,-2.56918 1.72335,-3.42853 -0.53213,-0.96593 -2.51864,-0.13113 -3.14524,0.27926 -2.2584,1.47908 -2.82152,4.23852 -3.50081,6.65008 m 1.66706,2.40526 c -2.40186,0.34394 -4.54347,1.17714 -6.5015,2.62189 -5.30924,3.91742 -7.45612,13.07286 -2.1606,17.9475 2.23991,2.06181 5.05069,2.71196 7.99527,2.69779 1.71164,-0.008 3.44285,-0.45194 5.00116,-1.14377 1.61537,-0.71716 1.4625,-1.47851 1.06192,-3.02369 -0.11597,-0.44778 -0.23005,-1.22462 -0.76603,-1.36432 -0.54922,-0.14314 -1.29533,0.39909 -1.79624,0.58163 -1.13926,0.41492 -2.44237,0.79186 -3.66752,0.76118 -5.28162,-0.13231 -7.22236,-5.40459 -5.42562,-9.8141 1.44324,-3.542 5.0339,-5.46679 8.75974,-4.95098 1.00448,0.139 3.50063,1.71338 4.27947,1.1756 0.40077,-0.27689 0.64633,-0.81769 0.88655,-1.22577 0.2914,-0.49467 0.98855,-1.3588 0.77401,-1.96973 -0.25956,-0.73917 -1.44899,-1.12475 -2.10582,-1.37262 -1.99497,-0.75287 -4.19668,-1.22678 -6.33479,-0.92061 m 3.6675,10.43104 c 0,-0.71899 0.20741,-1.83625 -0.1713,-2.47591 -0.38111,-0.64365 -1.88427,-0.79835 -2.32459,-0.13842 -0.45073,0.67549 0.16579,1.74257 -0.43865,2.34704 -0.77195,0.77185 -3.17561,-0.28056 -2.67963,1.76441 0.34982,1.44234 2.11504,0.28256 2.7756,1.24245 0.67551,0.98141 -0.0157,3.40163 2.3138,2.28521 0.98045,-0.47011 0.13389,-1.76558 0.79212,-2.42373 0.52555,-0.52545 1.44043,-0.01 1.96604,-0.53445 1.66773,-1.66789 -1.29262,-2.06666 -2.23335,-2.06666 m 6.33481,0 c -0.94073,0 -3.90108,0.39877 -2.23335,2.06666 0.52562,0.52543 1.44049,0.01 1.96613,0.53445 0.65814,0.65815 -0.18843,1.95362 0.79201,2.42373 2.47506,1.1866 1.54752,-1.55654 2.40971,-2.40055 0.72901,-0.71352 2.168,0.20036 2.63278,-0.96708 0.87254,-2.19167 -1.87676,-1.1686 -2.63278,-1.92444 -0.60429,-0.60447 0.0118,-1.67155 -0.4386,-2.34704 -0.44026,-0.65999 -1.94345,-0.50529 -2.32454,0.13842 -0.37875,0.63966 -0.1713,1.75692 -0.1713,2.47591 z"
       id="path318" /><path
       style="fill:#000000;stroke-width:0.166705"
       id="path316"
       d="" /></g></svg>
